<svg xmlns="http://www.w3.org/2000/svg" xmlns:xlink="http://www.w3.org/1999/xlink" width="125.736" height="39.751" viewBox="0 0 125.736 39.751">
  <defs>
    <linearGradient id="linear-gradient" x1="-0.205" y1="1.132" x2="-0.205" y2="1.181" gradientUnits="objectBoundingBox">
      <stop offset="0" stop-color="#1a1a1a" stop-opacity="0.102"/>
      <stop offset="0.123" stop-color="#212121" stop-opacity="0.153"/>
      <stop offset="0.308" stop-color="#353535" stop-opacity="0.227"/>
      <stop offset="0.532" stop-color="#575757" stop-opacity="0.318"/>
      <stop offset="0.783" stop-color="#858585" stop-opacity="0.42"/>
      <stop offset="1" stop-color="#b3b3b3" stop-opacity="0.51"/>
    </linearGradient>
  </defs>
  <g id="Group_42976" data-name="Group 42976" transform="translate(0 -0.031)">
    <path id="Path_9793" data-name="Path 9793" d="M140.567,50.795A3.7,3.7,0,0,1,137,54.613H20.072A3.7,3.7,0,0,1,16.5,50.795V20.344a3.709,3.709,0,0,1,3.577-3.823H136.994a3.7,3.7,0,0,1,3.573,3.822h0v30.45Z" transform="translate(-15.666 -15.661)" fill="#fff"/>
    <path id="Path_9794" data-name="Path 9794" d="M121.329,39.782H4.407A4.561,4.561,0,0,1,0,35.089V4.729A4.565,4.565,0,0,1,4.407.031H121.328a4.567,4.567,0,0,1,4.407,4.7v30.36a4.561,4.561,0,0,1-4.406,4.693Z" transform="translate(0 0)" fill="#a6a6a6"/>
    <path id="Path_9795" data-name="Path 9795" d="M140.567,50.795A3.7,3.7,0,0,1,137,54.613H20.072A3.7,3.7,0,0,1,16.5,50.795V20.344a3.709,3.709,0,0,1,3.577-3.823H136.994a3.7,3.7,0,0,1,3.573,3.822h0v30.45Z" transform="translate(-15.666 -15.661)"/>
    <path id="Path_9796" data-name="Path 9796" d="M253.233,127.862a5.4,5.4,0,0,1,2.573-4.531,5.533,5.533,0,0,0-4.357-2.355c-1.833-.193-3.611,1.1-4.545,1.1-.952,0-2.39-1.078-3.94-1.046A5.8,5.8,0,0,0,238.081,124c-2.112,3.655-.537,9.026,1.486,11.98,1.012,1.448,2.195,3.062,3.742,3.005,1.514-.061,2.08-.964,3.907-.964,1.811,0,2.342.964,3.92.928,1.625-.025,2.648-1.453,3.625-2.913a11.943,11.943,0,0,0,1.658-3.375,5.225,5.225,0,0,1-3.187-4.8Zm-2.982-8.83a5.315,5.315,0,0,0,1.217-3.809,5.417,5.417,0,0,0-3.5,1.811,5.058,5.058,0,0,0-1.249,3.669,4.474,4.474,0,0,0,3.534-1.67Z" transform="translate(-225.158 -108.328)" fill="#fff"/>
    <path id="Path_9797" data-name="Path 9797" d="M1230.105.031h-62.627l24.53,39.751h38.1a4.565,4.565,0,0,0,4.407-4.7V4.729A4.566,4.566,0,0,0,1230.105.031Z" transform="translate(-1108.776 0)" fill="url(#linear-gradient)"/>
    <g id="Group_6684" data-name="Group 6684" transform="translate(39.54 19.296)">
      <path id="Path_9798" data-name="Path 9798" d="M796.845,346.108h-2.116l-1.159-3.642H789.54l-1.1,3.642h-2.06l3.993-12.4h2.466l4.011,12.4Zm-3.625-5.17-1.048-3.237q-.166-.5-.625-2.336h-.037q-.185.791-.589,2.336l-1.031,3.237Zm13.874.59a5.062,5.062,0,0,1-1.239,3.6,3.634,3.634,0,0,1-2.756,1.178,2.759,2.759,0,0,1-2.553-1.268v4.691h-1.987v-9.627q0-1.432-.074-2.938h1.747l.111,1.417h.037a3.535,3.535,0,0,1,5.657-.351,4.942,4.942,0,0,1,1.057,3.294Zm-2.024.073a3.685,3.685,0,0,0-.589-2.153,2.035,2.035,0,0,0-1.73-.882,2.066,2.066,0,0,0-1.333.487,2.26,2.26,0,0,0-.782,1.279,2.6,2.6,0,0,0-.092.6v1.492a2.392,2.392,0,0,0,.6,1.647,1.986,1.986,0,0,0,1.554.672,2.036,2.036,0,0,0,1.747-.865A3.8,3.8,0,0,0,805.069,341.6Zm12.309-.073a5.061,5.061,0,0,1-1.239,3.6,3.636,3.636,0,0,1-2.757,1.178,2.76,2.76,0,0,1-2.553-1.268v4.691h-1.987v-9.627q0-1.432-.074-2.938h1.747l.111,1.417h.037a3.536,3.536,0,0,1,5.658-.351,4.948,4.948,0,0,1,1.057,3.294Zm-2.025.073a3.686,3.686,0,0,0-.59-2.153,2.032,2.032,0,0,0-1.728-.882,2.075,2.075,0,0,0-1.335.487,2.259,2.259,0,0,0-.781,1.279,2.652,2.652,0,0,0-.093.6v1.492a2.4,2.4,0,0,0,.6,1.647,1.991,1.991,0,0,0,1.556.672,2.034,2.034,0,0,0,1.747-.865A3.8,3.8,0,0,0,815.354,341.6Zm13.524,1.029a3.312,3.312,0,0,1-1.1,2.576,4.887,4.887,0,0,1-3.378,1.085,5.9,5.9,0,0,1-3.211-.772l.459-1.655a5.529,5.529,0,0,0,2.87.773,2.709,2.709,0,0,0,1.747-.506,1.653,1.653,0,0,0,.627-1.351,1.731,1.731,0,0,0-.516-1.27,4.784,4.784,0,0,0-1.711-.956q-3.257-1.214-3.258-3.551a3.135,3.135,0,0,1,1.15-2.5,4.548,4.548,0,0,1,3.045-.975,6.019,6.019,0,0,1,2.815.589l-.5,1.619a4.923,4.923,0,0,0-2.383-.57,2.423,2.423,0,0,0-1.644.515,1.474,1.474,0,0,0-.5,1.124,1.518,1.518,0,0,0,.571,1.214,6.434,6.434,0,0,0,1.8.956,6.11,6.11,0,0,1,2.355,1.507,3.141,3.141,0,0,1,.758,2.15Zm6.586-3.972h-2.19V343q0,1.656,1.159,1.655a3.493,3.493,0,0,0,.883-.092l.055,1.508a4.5,4.5,0,0,1-1.545.22,2.382,2.382,0,0,1-1.84-.718,3.522,3.522,0,0,1-.663-2.41v-4.506h-1.3v-1.491h1.3v-1.637l1.951-.589v2.226h2.19v1.494Zm9.861,2.906a4.9,4.9,0,0,1-1.178,3.385,4.2,4.2,0,0,1-3.275,1.361,4,4,0,0,1-3.138-1.3,4.754,4.754,0,0,1-1.169-3.292,4.863,4.863,0,0,1,1.2-3.4,4.177,4.177,0,0,1,3.249-1.325,4.087,4.087,0,0,1,3.164,1.306,4.693,4.693,0,0,1,1.141,3.272Zm-2.059.046a4,4,0,0,0-.532-2.109,1.967,1.967,0,0,0-1.785-1.065,2,2,0,0,0-1.822,1.065,4.069,4.069,0,0,0-.533,2.147,3.991,3.991,0,0,0,.533,2.11,2.038,2.038,0,0,0,3.591-.018,4.018,4.018,0,0,0,.549-2.13Zm8.52-2.7a3.463,3.463,0,0,0-.626-.055,1.875,1.875,0,0,0-1.62.792,2.982,2.982,0,0,0-.5,1.765v4.691h-1.987v-6.125q0-1.408-.058-2.814h1.73l.073,1.71h.055a3.068,3.068,0,0,1,.993-1.417,2.4,2.4,0,0,1,1.436-.479,3.192,3.192,0,0,1,.5.036l0,1.895Zm8.885,2.3a4.658,4.658,0,0,1-.073.9h-5.96a2.592,2.592,0,0,0,.865,2.025,2.958,2.958,0,0,0,1.95.624,6.594,6.594,0,0,0,2.412-.422l.311,1.378a7.458,7.458,0,0,1-3,.552,4.346,4.346,0,0,1-3.267-1.222,4.518,4.518,0,0,1-1.186-3.283,5.12,5.12,0,0,1,1.105-3.365,3.808,3.808,0,0,1,3.126-1.434,3.333,3.333,0,0,1,2.927,1.434,4.824,4.824,0,0,1,.788,2.812Zm-1.894-.515a2.689,2.689,0,0,0-.386-1.527,1.735,1.735,0,0,0-1.582-.829,1.884,1.884,0,0,0-1.581.81,2.966,2.966,0,0,0-.588,1.545l4.138,0Z" transform="translate(-786.375 -333.526)" fill="#fff"/>
    </g>
    <g id="Group_6685" data-name="Group 6685" transform="translate(40.703 6.632)">
      <path id="Path_9799" data-name="Path 9799" d="M810.934,127.912a12.686,12.686,0,0,1-1.429-.073v-5.994a10.813,10.813,0,0,1,1.682-.127c2.278,0,3.328,1.121,3.328,2.948C814.515,126.773,813.275,127.912,810.934,127.912Zm.334-5.425a3.985,3.985,0,0,0-.786.063v4.557a5.166,5.166,0,0,0,.66.027,2.159,2.159,0,0,0,2.343-2.441A1.988,1.988,0,0,0,811.267,122.487Zm6.518,5.471a2.091,2.091,0,0,1-2.116-2.26,2.14,2.14,0,0,1,2.189-2.323,2.075,2.075,0,0,1,2.116,2.252,2.153,2.153,0,0,1-2.189,2.332Zm.037-3.87c-.705,0-1.157.66-1.157,1.582,0,.9.461,1.564,1.148,1.564s1.148-.705,1.148-1.583c0-.894-.452-1.563-1.139-1.563Zm9.474-.623-1.374,4.394h-.9l-.569-1.908a14.444,14.444,0,0,1-.353-1.419h-.019a9.508,9.508,0,0,1-.352,1.419l-.606,1.908h-.9l-1.293-4.394h1l.5,2.089q.176.746.3,1.411h.019a14.455,14.455,0,0,1,.362-1.4l.624-2.1h.8l.6,2.052c.144.5.262.986.353,1.447h.026a12.631,12.631,0,0,1,.3-1.447l.534-2.052Zm5.06,4.394h-.977v-2.523c0-.777-.3-1.166-.886-1.166a1.014,1.014,0,0,0-.977,1.076v2.613h-.977V124.72c0-.389-.009-.8-.036-1.257h.859l.046.678h.027a1.579,1.579,0,0,1,1.393-.768c.923,0,1.528.705,1.528,1.853v2.631Zm2.693,0h-.978v-6.41h.978Zm3.561.1a2.092,2.092,0,0,1-2.116-2.26,2.14,2.14,0,0,1,2.188-2.323,2.074,2.074,0,0,1,2.116,2.252,2.152,2.152,0,0,1-2.188,2.332Zm.036-3.87c-.706,0-1.157.66-1.157,1.582,0,.9.462,1.564,1.147,1.564s1.148-.705,1.148-1.583c0-.894-.45-1.563-1.138-1.563Zm6,3.77-.071-.506h-.026a1.5,1.5,0,0,1-1.285.606,1.278,1.278,0,0,1-1.347-1.293c0-1.084.94-1.645,2.568-1.645v-.081c0-.579-.307-.868-.912-.868a2.057,2.057,0,0,0-1.148.326l-.2-.642a2.809,2.809,0,0,1,1.509-.38c1.148,0,1.728.606,1.728,1.818v1.618a6.631,6.631,0,0,0,.063,1.049Zm-.134-2.188c-1.085,0-1.629.263-1.629.886a.623.623,0,0,0,.67.687.935.935,0,0,0,.959-.894Zm5.694,2.188-.046-.705h-.027a1.473,1.473,0,0,1-1.411.8,2,2,0,0,1-1.844-2.242,2.085,2.085,0,0,1,1.924-2.342,1.321,1.321,0,0,1,1.239.6h.02v-2.522h.978v5.226c0,.425.01.823.036,1.184Zm-.144-2.585a1.063,1.063,0,0,0-1.029-1.139c-.724,0-1.167.642-1.167,1.546,0,.886.459,1.492,1.147,1.492A1.1,1.1,0,0,0,850.064,126v-.732Zm7.175,2.685a2.091,2.091,0,0,1-2.115-2.26,2.14,2.14,0,0,1,2.188-2.323,2.074,2.074,0,0,1,2.116,2.252,2.152,2.152,0,0,1-2.189,2.332Zm.036-3.87c-.7,0-1.157.66-1.157,1.582,0,.9.461,1.564,1.147,1.564s1.148-.705,1.148-1.583c0-.894-.45-1.563-1.139-1.563Zm7.4,3.77H863.7v-2.523c0-.777-.3-1.166-.886-1.166a1.013,1.013,0,0,0-.976,1.076v2.613h-.978V124.72c0-.389-.009-.8-.036-1.257h.859l.046.678h.027a1.578,1.578,0,0,1,1.392-.769c.923,0,1.529.705,1.529,1.853Zm6.571-3.661h-1.074v2.133c0,.543.188.814.568.814a1.926,1.926,0,0,0,.433-.046l.027.742a2.164,2.164,0,0,1-.758.109c-.77,0-1.23-.425-1.23-1.537V124.2h-.641v-.732h.641v-.8l.959-.29v1.094h1.074v.733Zm5.17,3.661h-.976v-2.5c0-.786-.3-1.184-.886-1.184a.958.958,0,0,0-.978,1.04v2.649h-.976v-6.41h.976v2.639h.02a1.482,1.482,0,0,1,1.321-.715c.93,0,1.5.723,1.5,1.872v2.613Zm5.3-1.962h-2.931a1.261,1.261,0,0,0,1.385,1.3,3.3,3.3,0,0,0,1.184-.208l.152.678a3.67,3.67,0,0,1-1.474.271,2.04,2.04,0,0,1-2.188-2.214,2.146,2.146,0,0,1,2.078-2.36,1.845,1.845,0,0,1,1.827,2.089,1.891,1.891,0,0,1-.034.443Zm-.9-.7c0-.678-.342-1.157-.966-1.157a1.158,1.158,0,0,0-1.068,1.157Z" transform="translate(-809.505 -121.448)" fill="#fff"/>
    </g>
  </g>
</svg>
