<svg xmlns="http://www.w3.org/2000/svg" width="179.449" height="47.399" viewBox="0 0 179.449 47.399">
  <g id="Group_42978" data-name="Group 42978" transform="translate(-24.551)">
    <g id="datum_icon_1_" transform="translate(24.552 0)">
      <path id="Path_3070_1_" d="M48.516,25.527a9.516,9.516,0,0,1-1.006,1.059L27.491,46.446c-.371.318-.688.688-1.059.953-.371-.318-.741-.636-1.059-.953l-4.29-4.237,5.349-5.349L29.5,33.841l12.71-12.6a5.8,5.8,0,0,0,.53-.583,7.993,7.993,0,0,0-.53-10.8A8.184,8.184,0,0,0,31.3,9.374a4.775,4.775,0,0,0-.53.477L18.594,21.925l-3.6,3.548-5.4,5.349L5.3,26.586c-.371-.371-.688-.688-1.006-1.059,0-.053.053-.053.053-.106,0,.053-.053.053-.053.106l-.053-.053,1.006-1.006a2.3,2.3,0,0,0-.318.371,2.3,2.3,0,0,0,.318-.371L25.32,4.555l.318-.318a2.3,2.3,0,0,1-.371.318l1.006-1.006a.052.052,0,0,1,.053.053l-.053.053.053-.053a15.819,15.819,0,0,1,21.131.953,15.4,15.4,0,0,1,1.059,20.972ZM5.248,4.555A15.935,15.935,0,0,1,16.369,0a14.3,14.3,0,0,1,2.6.212L.905,18.112A15.482,15.482,0,0,1,5.248,4.555ZM22.142,25.474,34.323,13.346c.053-.053.106-.106.159-.106a3.133,3.133,0,0,1,4.078.159,2.881,2.881,0,0,1,.9,2.118,3.112,3.112,0,0,1-.688,1.907l-.053.106c0,.053-.053.053-.053.106L25.849,30.293l-3.072,3.019-5.3,5.349-4.29-4.237,5.349-5.349Z" transform="translate(-0.686 0)" fill="#fff"/>
      <path id="Path_3071_1_" d="M48.516,25.527a9.516,9.516,0,0,1-1.006,1.059L27.491,46.446c-.371.318-.688.688-1.059.953-.371-.318-.741-.636-1.059-.953l-4.29-4.237,5.349-5.349L29.5,33.841l12.71-12.6a5.8,5.8,0,0,0,.53-.583,7.993,7.993,0,0,0-.53-10.8A8.184,8.184,0,0,0,31.3,9.374a4.775,4.775,0,0,0-.53.477L18.594,21.925l-3.6,3.548-5.4,5.349L5.3,26.586c-.371-.371-.688-.688-1.006-1.059,0-.053.053-.053.053-.106,0,.053-.053.053-.053.106l-.053-.053,1.006-1.006a2.3,2.3,0,0,0-.318.371,2.3,2.3,0,0,0,.318-.371L25.32,4.555l.318-.318a2.3,2.3,0,0,1-.371.318l1.006-1.006a.052.052,0,0,1,.053.053l-.053.053.053-.053a15.819,15.819,0,0,1,21.131.953,15.4,15.4,0,0,1,1.059,20.972ZM5.248,4.555A15.935,15.935,0,0,1,16.369,0a14.3,14.3,0,0,1,2.6.212L.905,18.112A15.482,15.482,0,0,1,5.248,4.555ZM22.142,25.474,34.323,13.346c.053-.053.106-.106.159-.106a3.133,3.133,0,0,1,4.078.159,2.881,2.881,0,0,1,.9,2.118,3.112,3.112,0,0,1-.688,1.907l-.053.106c0,.053-.053.053-.053.106L25.849,30.293l-3.072,3.019-5.3,5.349-4.29-4.237,5.349-5.349Z" transform="translate(-0.686 0)" fill="#fff"/>
    </g>
    <text id="Datum" transform="translate(88 37.399)" fill="#fff" font-size="37" font-family="CircularAirPro-Bold, Circular Air Pro" font-weight="700"><tspan x="0" y="0">Datum</tspan></text>
  </g>
</svg>
