<svg xmlns="http://www.w3.org/2000/svg" xmlns:xlink="http://www.w3.org/1999/xlink" width="125.736" height="39.751" viewBox="0 0 125.736 39.751">
  <defs>
    <linearGradient id="linear-gradient" x1="2.976" y1="1.679" x2="2.906" y2="1.715" gradientUnits="objectBoundingBox">
      <stop offset="0" stop-color="#00a0ff"/>
      <stop offset="0.007" stop-color="#00a1ff"/>
      <stop offset="0.26" stop-color="#00beff"/>
      <stop offset="0.512" stop-color="#00d2ff"/>
      <stop offset="0.76" stop-color="#00dfff"/>
      <stop offset="1" stop-color="#00e3ff"/>
    </linearGradient>
    <linearGradient id="linear-gradient-2" x1="2.604" y1="4.034" x2="2.476" y2="4.034" gradientUnits="objectBoundingBox">
      <stop offset="0" stop-color="#ffe000"/>
      <stop offset="0.409" stop-color="#ffbd00"/>
      <stop offset="0.775" stop-color="orange"/>
      <stop offset="1" stop-color="#ff9c00"/>
    </linearGradient>
    <linearGradient id="linear-gradient-3" x1="2.302" y1="2.344" x2="2.229" y2="2.439" gradientUnits="objectBoundingBox">
      <stop offset="0" stop-color="#ff3a44"/>
      <stop offset="1" stop-color="#c31162"/>
    </linearGradient>
    <linearGradient id="linear-gradient-4" x1="2.246" y1="3.262" x2="2.278" y2="3.305" gradientUnits="objectBoundingBox">
      <stop offset="0" stop-color="#32a071"/>
      <stop offset="0.069" stop-color="#2da771"/>
      <stop offset="0.476" stop-color="#15cf74"/>
      <stop offset="0.801" stop-color="#06e775"/>
      <stop offset="1" stop-color="#00f076"/>
    </linearGradient>
  </defs>
  <g id="Group_42977" data-name="Group 42977" transform="translate(0 -0.13)">
    <path id="Path_9800" data-name="Path 9800" d="M121.079,39.881H4.657A4.774,4.774,0,0,1,0,34.912V5.1A4.774,4.774,0,0,1,4.657.13H121.079A4.774,4.774,0,0,1,125.736,5.1V34.912A4.774,4.774,0,0,1,121.079,39.881Z"/>
    <path id="Path_9801" data-name="Path 9801" d="M121.079.925A4.074,4.074,0,0,1,124.991,5.1V34.912a4.074,4.074,0,0,1-3.912,4.174H4.657A4.074,4.074,0,0,1,.745,34.912V5.1A4.074,4.074,0,0,1,4.657.925H121.079m0-.795H4.657A4.836,4.836,0,0,0,0,5.1V34.912a4.774,4.774,0,0,0,4.657,4.969H121.079a4.774,4.774,0,0,0,4.657-4.969V5.1A4.836,4.836,0,0,0,121.079.13Z" fill="#a6a6a6"/>
    <path id="Path_9802" data-name="Path 9802" d="M772.255,130.981a2.537,2.537,0,0,1-.652,1.863,2.9,2.9,0,1,1-2.049-4.936,2.48,2.48,0,0,1,1.118.279,2.027,2.027,0,0,1,.838.652l-.466.466a1.737,1.737,0,0,0-1.49-.652,1.853,1.853,0,0,0-1.49.652,2.249,2.249,0,0,0,0,3.167,2.4,2.4,0,0,0,1.49.652,2.043,2.043,0,0,0,1.583-.652,1.543,1.543,0,0,0,.466-1.118h-2.049v-.745h2.7v.373Zm4.284-2.328h-2.515v1.77h2.328v.652h-2.328v1.77h2.515v.745h-3.26V128h3.26Zm3.074,4.936h-.745v-4.936h-1.583V128H781.2v.652h-1.583Zm4.284,0V128h.745v5.588Zm3.912,0h-.745v-4.936h-1.583V128H789.3v.652h-1.583v4.936Zm8.848-.745a2.923,2.923,0,1,1,.838-2.049A2.739,2.739,0,0,1,796.657,132.843Zm-3.539-.466a2.2,2.2,0,0,0,1.49.652,1.853,1.853,0,0,0,1.49-.652,2.247,2.247,0,0,0,.652-1.583,1.919,1.919,0,0,0-.652-1.583,2.2,2.2,0,0,0-1.49-.652,1.853,1.853,0,0,0-1.49.652,2.247,2.247,0,0,0-.652,1.583A1.919,1.919,0,0,0,793.118,132.378Zm5.4,1.211V128h.838l2.7,4.377V128h.745v5.588h-.745l-2.887-4.564v4.564Z" transform="translate(-728.108 -120.841)" fill="#fff" stroke="#fff" stroke-miterlimit="10" stroke-width="0.2"/>
    <path id="Path_9803" data-name="Path 9803" d="M786.258,321.173a3.919,3.919,0,0,0-4.005,4,3.975,3.975,0,0,0,4.005,4,3.918,3.918,0,0,0,4-4A3.864,3.864,0,0,0,786.258,321.173Zm0,6.333a2.429,2.429,0,0,1,0-4.843,2.256,2.256,0,0,1,2.235,2.422A2.312,2.312,0,0,1,786.258,327.507Zm-8.662-6.333a3.918,3.918,0,0,0-4,4,3.975,3.975,0,0,0,4,4,3.918,3.918,0,0,0,4-4A3.864,3.864,0,0,0,777.6,321.173Zm0,6.333a2.429,2.429,0,0,1,0-4.843,2.256,2.256,0,0,1,2.235,2.422A2.312,2.312,0,0,1,777.6,327.507Zm-10.338-5.123v1.677h4a3.522,3.522,0,0,1-.932,2.142,4.122,4.122,0,0,1-3.073,1.211,4.336,4.336,0,0,1-4.378-4.471,4.393,4.393,0,0,1,4.378-4.471,4.618,4.618,0,0,1,3.073,1.211l1.211-1.211a5.968,5.968,0,0,0-4.191-1.677,6.148,6.148,0,1,0,0,12.294,5.36,5.36,0,0,0,4.284-1.77,5.607,5.607,0,0,0,1.49-3.912,3.492,3.492,0,0,0-.093-1.025Zm42.285,1.3a3.619,3.619,0,0,0-3.353-2.515,3.751,3.751,0,0,0-3.725,4,3.9,3.9,0,0,0,3.912,4,3.821,3.821,0,0,0,3.26-1.77l-1.3-.931a2.27,2.27,0,0,1-1.956,1.118,2.021,2.021,0,0,1-1.956-1.211l5.309-2.235-.186-.466Zm-5.4,1.3a2.263,2.263,0,0,1,2.049-2.328,1.647,1.647,0,0,1,1.49.838l-3.539,1.49Zm-4.378,3.819h1.77V317.169h-1.77Zm-2.794-6.8a3.067,3.067,0,0,0-2.142-.931,4,4,0,0,0-3.819,4A3.857,3.857,0,0,0,794.827,329a2.674,2.674,0,0,0,2.049-.931h.093v.559a2.117,2.117,0,0,1-4.1.931l-1.49.652a3.842,3.842,0,0,0,3.539,2.328c2.049,0,3.725-1.211,3.725-4.1V321.36h-1.676v.652Zm-2.049,5.5a2.429,2.429,0,0,1,0-4.843,2.44,2.44,0,0,1,0,4.843Zm22.726-10.338h-4.191v11.642h1.77v-4.377h2.422a3.637,3.637,0,1,0,0-7.265Zm.093,5.588h-2.515v-4h2.515a2.046,2.046,0,0,1,2.049,1.956,2.132,2.132,0,0,1-2.049,2.049Zm10.711-1.676a3.131,3.131,0,0,0-3.074,1.77l1.583.652a1.646,1.646,0,0,1,1.583-.838,1.75,1.75,0,0,1,1.863,1.49v.093a3.7,3.7,0,0,0-1.77-.466c-1.677,0-3.353.931-3.353,2.608A2.729,2.729,0,0,0,828.17,329a2.621,2.621,0,0,0,2.235-1.118h.093v.931h1.677V324.34a3.525,3.525,0,0,0-3.726-3.26Zm-.186,6.427c-.559,0-1.4-.279-1.4-1.025,0-.931,1.025-1.211,1.863-1.211a3.6,3.6,0,0,1,1.583.372A2.169,2.169,0,0,1,828.263,327.507Zm9.779-6.147-1.956,5.029h-.093l-2.049-5.029h-1.863l3.074,7.079-1.77,3.912h1.77l4.75-10.99ZM822.4,328.811h1.77V317.169H822.4Z" transform="translate(-722.831 -298.243)" fill="#fff"/>
    <g id="Group_6687" data-name="Group 6687" transform="translate(9.314 8.038)">
      <path id="Path_9804" data-name="Path 9804" d="M185.558,139.019a1.821,1.821,0,0,0-.373,1.3v20.584a1.843,1.843,0,0,0,.466,1.3l.093.093,11.549-11.549v-.186Z" transform="translate(-185.185 -138.69)" fill="url(#linear-gradient)"/>
      <path id="Path_9805" data-name="Path 9805" d="M427.893,300.639l-3.819-3.819v-.279l3.819-3.819.093.093,4.564,2.608c1.3.745,1.3,1.956,0,2.7Z" transform="translate(-412.059 -284.663)" fill="url(#linear-gradient-2)"/>
      <path id="Path_9806" data-name="Path 9806" d="M208.147,374.412l-3.912-3.912-11.642,11.642c.466.466,1.118.466,1.956.093l13.6-7.824" transform="translate(-192.22 -358.529)" fill="url(#linear-gradient-3)"/>
      <path id="Path_9807" data-name="Path 9807" d="M208.147,140.968l-13.6-7.73a1.51,1.51,0,0,0-1.956.093l11.642,11.549,3.912-3.912Z" transform="translate(-192.22 -132.909)" fill="url(#linear-gradient-4)"/>
      <path id="Path_9808" data-name="Path 9808" d="M208.054,446.426l-13.505,7.637a1.523,1.523,0,0,1-1.863,0l-.093.093.093.093a1.523,1.523,0,0,0,1.863,0Z" transform="translate(-192.22 -430.637)" opacity="0.2" style="isolation: isolate"/>
      <path id="Path_9809" data-name="Path 9809" d="M185.558,381.956a1.821,1.821,0,0,1-.373-1.3v.093a1.843,1.843,0,0,0,.466,1.3v-.093Zm20.118-10.245-4.657,2.608.093.093,4.564-2.608a1.548,1.548,0,0,0,.931-1.3C206.607,370.966,206.234,371.338,205.675,371.711Z" transform="translate(-185.185 -358.529)" opacity="0.12" style="isolation: isolate"/>
      <path id="Path_9810" data-name="Path 9810" d="M187.513,132.907l18.162,10.338c.559.373.931.745.931,1.211a1.548,1.548,0,0,0-.931-1.3l-18.162-10.338c-1.3-.745-2.328-.186-2.328,1.3v.093C185.185,132.814,186.21,132.162,187.513,132.907Z" transform="translate(-185.185 -132.485)" fill="#fff" opacity="0.25" style="isolation: isolate"/>
    </g>
  </g>
</svg>
